# xmcd
#
# Track frame offsets: 
#        150
#        25805
#        52926
#        79743
#        100451
#        118176
#        147918
#        172186
#        195813
#        222376
#
# Disc length: 3445 seconds
#
# Revision: 0
# Processed by: cddbd v1.5.2PL0 Copyright (c) Steve Scherf et al.
# Submitted via: ExactAudioCopy v0.95a5
#
DISCID=890d730a
DTITLE=Grace Jones - Hurricane
DYEAR=2008
DGENRE=R&B
TTITLE0=This Is
TTITLE1=Williams Blood
TTITLE2=Corporate Cannibal
TTITLE3=I'm Crying (Mother's Tears)
TTITLE4=Well Well Well
TTITLE5=Hurricane
TTITLE6=Love You to Life
TTITLE7=Sunset Sunrise
TTITLE8=Devil In My Life
TTITLE9=Corporate Cannibal (Atticus Mix)
EXTD=
EXTT0=
EXTT1=
EXTT2=
EXTT3=
EXTT4=
EXTT5=
EXTT6=
EXTT7=
EXTT8=
EXTT9=
PLAYORDER=
